<svg width="45" height="34" viewBox="0 0 45 34" fill="none" xmlns="http://www.w3.org/2000/svg">
<rect width="45" height="34" fill="black"/>
<g clip-path="url(#clip0_0_1)">
<rect width="1440" height="1940" transform="translate(-860 -1672)" fill="white"/>
<rect x="-79" y="-55" width="400" height="150" rx="10" fill="#302A2D"/>
<path opacity="0.4" d="M34.1401 15.0508C37.4783 15.0508 40.1863 12.3447 40.1863 9.00655C40.1863 5.66836 37.4783 2.96228 34.1401 2.96228" stroke="white" stroke-width="1.5" stroke-linecap="round" stroke-linejoin="round"/>
<path d="M36.9197 21.6193C37.9166 21.688 38.9077 21.8293 39.8836 22.049C41.2395 22.3144 42.8704 22.8701 43.4509 24.0866C43.8214 24.8658 43.8214 25.7729 43.4509 26.554C42.8723 27.7705 41.2395 28.3243 39.8836 28.6031" stroke="white" stroke-width="1.5" stroke-linecap="round" stroke-linejoin="round"/>
<path opacity="0.4" d="M10.5882 15.0508C7.25004 15.0508 4.54205 12.3447 4.54205 9.00655C4.54205 5.66836 7.25004 2.96228 10.5882 2.96228" stroke="white" stroke-width="1.5" stroke-linecap="round" stroke-linejoin="round"/>
<path d="M7.80864 21.6193C6.81176 21.688 5.82062 21.8293 4.84475 22.049C3.48885 22.3144 1.85794 22.8701 1.2793 24.0866C0.906901 24.8658 0.906901 25.7729 1.2793 26.554C1.85603 27.7705 3.48885 28.3243 4.84475 28.6031" stroke="white" stroke-width="1.5" stroke-linecap="round" stroke-linejoin="round"/>
<path fill-rule="evenodd" clip-rule="evenodd" d="M22.3544 22.9209C29.1187 22.9209 34.8975 23.9445 34.8975 28.0409C34.8975 32.1353 29.1569 33.1971 22.3544 33.1971C15.5883 33.1971 9.81137 32.1735 9.81137 28.0771C9.81137 23.9808 15.552 22.9209 22.3544 22.9209Z" stroke="white" stroke-width="1.5" stroke-linecap="round" stroke-linejoin="round"/>
<path opacity="0.4" fill-rule="evenodd" clip-rule="evenodd" d="M22.3544 17.078C17.8933 17.078 14.3164 13.501 14.3164 9.03802C14.3164 4.57691 17.8933 1 22.3544 1C26.8155 1 30.3924 4.57691 30.3924 9.03802C30.3924 13.501 26.8155 17.078 22.3544 17.078Z" stroke="white" stroke-width="1.5" stroke-linecap="round" stroke-linejoin="round"/>
</g>
<defs>
<clipPath id="clip0_0_1">
<rect width="1440" height="1940" fill="white" transform="translate(-860 -1672)"/>
</clipPath>
</defs>
</svg>
